<svg width="30" height="34" viewBox="0 0 30 34" fill="none" xmlns="http://www.w3.org/2000/svg">
<g clip-path="url(#clip0)">
<path d="M22.1908 25.7946C21.8329 25.7946 21.54 26.0874 21.54 26.4453C21.54 26.8032 21.8329 27.0961 22.1908 27.0961C22.5487 27.0961 22.8416 26.8032 22.8416 26.4453C22.8416 26.0874 22.5487 25.7946 22.1908 25.7946Z" fill="white"/>
<path d="M23.7933 23.6958L20.7022 22.6627L19.5959 20.442C20.5964 19.4252 21.2878 18.0748 21.5237 16.6676L21.662 15.8379H22.8497C23.9234 15.8379 24.8019 14.9593 24.8019 13.8856V9.7858C24.8019 4.40077 20.4256 0.0244141 15.0405 0.0244141C9.64738 0.0244141 5.27915 4.39263 5.27915 9.7858V13.8856C5.27915 14.7316 5.82417 15.4555 6.58067 15.724V16.4886C6.58067 17.5624 7.4592 18.4409 8.53295 18.4409H9.10237C9.38707 19.051 9.75313 19.6204 10.1924 20.1329C10.2819 20.2386 10.3795 20.3444 10.4771 20.442L9.37081 22.6627L6.2797 23.6958C2.67611 24.8915 0.0649414 28.6741 0.0649414 32.6925C0.0649414 33.0504 0.357783 33.3433 0.715701 33.3433H29.3491C29.707 33.3433 29.9999 33.0504 29.9999 32.6925C29.9999 28.6741 27.3887 24.8915 23.7933 23.6958ZM23.4923 13.8856C23.4923 14.2435 23.1995 14.5363 22.8415 14.5363H21.8491C22.0118 13.2592 22.1257 11.8926 22.1664 10.5504C22.1664 10.5098 22.1664 10.4772 22.1664 10.4366H23.4842V13.8856H23.4923ZM7.2233 14.5363C6.86538 14.5363 6.57254 14.2435 6.57254 13.8856V10.4366H7.89033C7.89033 10.5016 7.89846 10.5748 7.89846 10.6399V10.6481C7.94727 11.9577 8.05302 13.2836 8.21571 14.5363H7.2233ZM8.52482 17.1394C8.1669 17.1394 7.87406 16.8465 7.87406 16.4886V15.8379H8.41094L8.54922 16.6676C8.57362 16.8221 8.60616 16.9848 8.64684 17.1394H8.52482ZM7.87406 9.13504H6.59694C6.93046 4.77496 10.5666 1.32593 15.0324 1.32593C19.482 1.32593 23.1344 4.77496 23.4679 9.13504H22.1908C22.142 5.5396 19.2135 2.62745 15.6181 2.62745H14.4549C10.8513 2.62745 7.92287 5.5396 7.87406 9.13504ZM14.4467 3.92897H15.6181C18.5302 3.92897 20.8974 6.31237 20.8893 9.22452C20.8893 9.42788 20.8893 9.60684 20.8811 9.76953V9.77767L20.0677 9.66378C17.8551 9.34654 15.7645 8.30532 14.1864 6.72723C14.0644 6.60522 13.9017 6.54014 13.7228 6.54014C11.9738 6.54014 10.2981 7.33732 9.19998 8.67951C9.47655 6.02767 11.7135 3.92897 14.4467 3.92897ZM9.98903 17.1394C9.66365 16.0575 9.28946 12.8688 9.20812 10.827L10.0866 9.65565C10.892 8.5819 12.1447 7.91487 13.4706 7.84166C15.2195 9.50923 17.489 10.6074 19.8806 10.949L20.8404 11.0873C20.7754 12.4458 20.6452 13.8124 20.4581 15.0651C20.4012 15.4718 20.3524 15.724 20.2304 16.4561C19.8887 18.5222 18.3432 20.3932 16.3095 20.8975C15.4717 21.109 14.585 21.109 13.7553 20.8975C12.4863 20.5803 11.3149 19.7017 10.5666 18.4409H11.8925C12.1609 19.1974 12.8849 19.7424 13.7309 19.7424H15.0324C16.1143 19.7424 16.9847 18.872 16.9847 17.7901C16.9847 16.7164 16.1062 15.8379 15.0324 15.8379H13.7309C12.8605 15.8379 12.1528 16.3991 11.8925 17.1394H9.98903ZM13.674 22.2153C14.1214 22.3129 14.5769 22.3536 15.0324 22.3536C15.3903 22.3536 15.7483 22.3211 16.098 22.2641L14.9511 23.4761L13.674 22.2153ZM14.0481 24.436L11.982 26.6161C11.4126 25.526 10.9245 24.3953 10.5259 23.2402L11.2987 21.6866L14.0481 24.436ZM18.6523 21.4669L19.5389 23.2402C19.1403 24.4035 18.6523 25.5342 18.0829 26.6161L15.8703 24.4035L18.6523 21.4669ZM13.0801 17.7901C13.0801 17.4322 13.373 17.1394 13.7309 17.1394H15.0324C15.3903 17.1394 15.6832 17.4322 15.6832 17.7901C15.6832 18.1481 15.3903 18.4409 15.0324 18.4409H13.7309C13.373 18.4409 13.0801 18.1481 13.0801 17.7901ZM1.39086 32.0418C1.65117 28.8205 3.79054 25.884 6.67829 24.9241L9.41961 24.013C9.92395 25.404 10.5422 26.7462 11.2743 28.0315V28.0396C11.803 28.9751 12.405 29.8943 13.0557 30.7565L13.8529 32.0418H1.39086ZM15.0324 31.4642L14.1458 30.0488C14.1376 30.0325 14.1214 30.0163 14.1132 30C13.5845 29.3004 13.0964 28.5602 12.649 27.8118L14.9673 25.3552L17.4158 27.8037C16.9684 28.5602 16.4722 29.3004 15.9435 30C15.9109 30.0407 15.9597 29.9756 15.0324 31.4642ZM16.2038 32.0418L17.001 30.7565C17.6517 29.8861 18.2537 28.9588 18.7987 28.0152C18.7987 28.0071 18.8068 28.0071 18.8068 27.9989C19.5227 26.7299 20.1409 25.3959 20.6371 24.013L23.3784 24.9241C26.2662 25.884 28.4137 28.8205 28.6658 32.0418H16.2038Z" fill="white"/>
<path d="M26.7136 29.4062C26.2825 28.5358 25.6398 27.763 24.8752 27.1692C24.5905 26.9496 24.1837 27.0065 23.9641 27.2912C23.7445 27.5759 23.8014 27.9826 24.0861 28.2023C24.7044 28.6741 25.2087 29.2923 25.5585 29.9919C25.7212 30.3173 26.1116 30.4474 26.4289 30.2847C26.7461 30.122 26.8763 29.7316 26.7136 29.4062Z" fill="white"/>
</g>
<defs>
<clipPath id="clip0">
<rect width="30" height="33.4246" fill="white"/>
</clipPath>
</defs>
</svg>
