<svg width="30" height="32" viewBox="0 0 30 32" fill="none" xmlns="http://www.w3.org/2000/svg">
<g clip-path="url(#clip0)">
<path d="M27.9268 7.68293H24.2683V2.43902C24.2683 1.09146 23.1768 0 21.8293 0H4.5122C3.16463 0 2.07317 1.09146 2.07317 2.43902V18.872H0.609756C0.27439 18.872 0 19.1463 0 19.4817C0 19.8171 0.27439 20.0915 0.609756 20.0915H2.07317V28.7805C2.07317 30.128 3.16463 31.2195 4.5122 31.2195H21.8293C23.1768 31.2195 24.2683 30.128 24.2683 28.7805V23.5366H27.9268C29.0671 23.5366 30 22.6037 30 21.4634V9.7561C30 8.61585 29.0671 7.68293 27.9268 7.68293ZM23.7744 8.90244V11.622L23.6585 11.5061C23.4207 11.2683 23.0366 11.2683 22.7988 11.5061L22.0732 12.2317L21.3476 11.5061C21.2256 11.3902 21.0732 11.3293 20.9146 11.3293C20.7561 11.3293 20.6037 11.3902 20.4817 11.5061L20.3659 11.622V8.90244H23.7744ZM3.29268 2.43902C3.29268 1.76829 3.84146 1.21951 4.5122 1.21951H21.8293C22.5 1.21951 23.0488 1.76829 23.0488 2.43902V7.68293H21.8293V3.90244C21.8293 3.56707 21.5549 3.29268 21.2195 3.29268H5.12195C4.78659 3.29268 4.5122 3.56707 4.5122 3.90244V5.85366C4.5122 6.18902 4.78659 6.46341 5.12195 6.46341C5.45732 6.46341 5.73171 6.18902 5.73171 5.85366V4.5122H20.6098V7.68293H16.2195C15.0793 7.68293 14.1463 8.61585 14.1463 9.7561V11.5549H7.54268C7.20732 11.5549 6.93293 11.8293 6.93293 12.1646C6.93293 12.5 7.20732 12.7744 7.54268 12.7744H14.1463V15.2134H10.122C9.78659 15.2134 9.5122 15.4878 9.5122 15.8232C9.5122 16.1585 9.78659 16.4329 10.122 16.4329H14.1463V18.872H5.73171V10.7378C5.73171 10.4024 5.45732 10.128 5.12195 10.128C4.78659 10.128 4.5122 10.4024 4.5122 10.7378V18.872H3.29268V2.43902ZM16.2195 23.5366H20.6098V26.0976H5.73171V20.0915H14.1463V21.4634C14.1463 22.6037 15.0793 23.5366 16.2195 23.5366ZM23.0488 28.7805C23.0488 29.4512 22.5 30 21.8293 30H4.5122C3.84146 30 3.29268 29.4512 3.29268 28.7805V20.0915H4.5122V26.7073C4.5122 27.0427 4.78659 27.3171 5.12195 27.3171H21.2195C21.5549 27.3171 21.8293 27.0427 21.8293 26.7073V23.5366H23.0488V28.7805ZM28.7805 21.4634C28.7805 21.9329 28.3963 22.3171 27.9268 22.3171H16.2195C15.75 22.3171 15.3659 21.9329 15.3659 21.4634V9.7561C15.3659 9.28659 15.75 8.90244 16.2195 8.90244H19.1524V13.0915C19.1524 13.3354 19.2988 13.561 19.5305 13.6524C19.7561 13.7439 20.0183 13.6951 20.1951 13.5183L20.9207 12.7927L21.6463 13.5183C21.8841 13.7561 22.2683 13.7561 22.5061 13.5183L23.2317 12.7927L23.9573 13.5183C24.0732 13.6341 24.2317 13.6951 24.3902 13.6951C24.4695 13.6951 24.5488 13.6768 24.622 13.6463C24.8476 13.5549 25 13.3293 25 13.0854V8.90244H27.9268C28.3963 8.90244 28.7805 9.28659 28.7805 9.7561V21.4634Z" fill="white"/>
</g>
<defs>
<clipPath id="clip0">
<rect width="30" height="31.2195" fill="white"/>
</clipPath>
</defs>
</svg>
