<svg width="30" height="30" viewBox="0 0 30 30" fill="none" xmlns="http://www.w3.org/2000/svg">
<path d="M28.2422 10.8984H27.6563V0.585938C27.6563 0.263672 27.3926 0 27.0703 0H2.92969C2.60742 0 2.34375 0.263672 2.34375 0.585938V3.86719H1.75781C0.783691 3.86719 0 4.65088 0 5.625C0 6.5918 0.791016 7.38281 1.75781 7.38281H2.34375V9.72656H1.75781C0.783691 9.72656 0 10.5103 0 11.4844C0 12.4512 0.791016 13.2422 1.75781 13.2422H2.34375V15.5859H1.75781C0.783691 15.5859 0 16.3696 0 17.3438C0 18.3105 0.791016 19.1016 1.75781 19.1016H2.34375V21.4453H1.75781C0.783691 21.4453 0 22.229 0 23.2031C0 24.1699 0.791016 24.9609 1.75781 24.9609H2.34375V29.4141C2.34375 29.7363 2.60742 30 2.92969 30H27.0703C27.3926 30 27.6563 29.7363 27.6563 29.4141V17.9297H28.2422C29.209 17.9297 30 17.1387 30 16.1719V12.6563C30 11.6895 29.209 10.8984 28.2422 10.8984ZM25.3125 1.17188H26.4844V10.8984H25.3125V1.17188ZM1.75781 6.21094C1.43555 6.21094 1.17188 5.94727 1.17188 5.625C1.17188 5.30273 1.43555 5.03906 1.75781 5.03906H4.10156C4.42383 5.03906 4.6875 5.30273 4.6875 5.625C4.6875 5.94727 4.42383 6.21094 4.10156 6.21094H1.75781ZM1.75781 12.0703C1.43555 12.0703 1.17188 11.8066 1.17188 11.4844C1.17188 11.1621 1.43555 10.8984 1.75781 10.8984H4.10156C4.42383 10.8984 4.6875 11.1621 4.6875 11.4844C4.6875 11.8066 4.42383 12.0703 4.10156 12.0703H1.75781ZM1.75781 17.9297C1.43555 17.9297 1.17188 17.666 1.17188 17.3438C1.17188 17.0215 1.43555 16.7578 1.75781 16.7578H4.10156C4.42383 16.7578 4.6875 17.0215 4.6875 17.3438C4.6875 17.666 4.42383 17.9297 4.10156 17.9297H1.75781ZM1.75781 23.7891C1.43555 23.7891 1.17188 23.5254 1.17188 23.2031C1.17188 22.8809 1.43555 22.6172 1.75781 22.6172H4.10156C4.42383 22.6172 4.6875 22.8809 4.6875 23.2031C4.6875 23.5254 4.42383 23.7891 4.10156 23.7891H1.75781ZM19.4531 28.8281H3.51562V24.9609H4.10156C5.07568 24.9609 5.85938 24.1772 5.85938 23.2031C5.85938 22.2363 5.06836 21.4453 4.10156 21.4453H3.51562V19.1016H4.10156C5.07568 19.1016 5.85938 18.3179 5.85938 17.3438C5.85938 16.377 5.06836 15.5859 4.10156 15.5859H3.51562V13.2422H4.10156C5.07568 13.2422 5.85938 12.4585 5.85938 11.4844C5.85938 10.5176 5.06836 9.72656 4.10156 9.72656H3.51562V7.38281H4.10156C5.07568 7.38281 5.85938 6.59912 5.85938 5.625C5.85938 4.6582 5.06836 3.86719 4.10156 3.86719H3.51562V1.17188H13.5938V6.79688C13.5938 7.00928 13.7109 7.21436 13.9014 7.31689C14.0918 7.41943 14.3262 7.40479 14.502 7.2876L15.9375 6.33545L17.373 7.2876C17.5562 7.40479 17.7832 7.41943 17.9736 7.31689C18.1641 7.21436 18.2813 7.0166 18.2813 6.79688V1.17188H19.4531V28.8281V28.8281ZM24.1406 28.8281H22.9688V26.1328H24.1406V28.8281ZM26.4844 28.8281H25.3125V26.1328H25.8984C26.1035 26.1328 26.3013 26.0962 26.4844 26.0303V28.8281ZM26.4844 24.375C26.4844 24.6973 26.2207 24.9609 25.8984 24.9609H22.3828C22.0605 24.9609 21.7969 25.2246 21.7969 25.5469V28.8281H20.625V1.17188H21.7969V19.6875C21.7969 20.0098 22.0605 20.2734 22.3828 20.2734H25.8984C26.2207 20.2734 26.4844 20.5371 26.4844 20.8594V24.375ZM26.4844 19.2041C26.3013 19.1382 26.1035 19.1016 25.8984 19.1016H25.3125V17.9297H26.4844V19.2041ZM28.8281 16.1719C28.8281 16.4941 28.5645 16.7578 28.2422 16.7578H24.7266C24.4043 16.7578 24.1406 17.0215 24.1406 17.3438V19.1016H22.9688V1.17188H24.1406V11.4844C24.1406 11.8066 24.4043 12.0703 24.7266 12.0703H28.2422C28.5645 12.0703 28.8281 12.334 28.8281 12.6563V16.1719Z" fill="white"/>
</svg>
