<svg width="30" height="31" viewBox="0 0 30 31" fill="none" xmlns="http://www.w3.org/2000/svg">
<g clip-path="url(#clip0)">
<path d="M26.3554 11.1466L29.8026 7.69945C29.9489 7.55308 30.0075 7.34083 29.9563 7.14322C29.905 6.94561 29.7586 6.7846 29.561 6.72605L21.1663 4.12785C20.4125 1.69067 18.1583 0.0219727 15.5747 0.0219727C13.1741 0.0219727 11.0297 1.48574 10.1441 3.68872L0.410021 6.72605C0.212412 6.7846 0.0660344 6.94561 0.0148024 7.14322C-0.0364296 7.34083 0.0221213 7.55308 0.168498 7.69945L3.71083 11.2418L1.47857 14.9671C1.38343 15.1208 1.36879 15.3037 1.43466 15.4721C1.49321 15.6404 1.63227 15.7648 1.8006 15.8234L5.04286 16.9066V25.9088C5.04286 26.1503 5.19655 26.3699 5.42344 26.4577C7.40685 27.1969 14.7623 29.9634 14.7989 29.9781C14.916 30.022 15.0477 30.022 15.1722 29.9854C15.1722 29.9854 15.1722 29.9854 15.1795 29.9854L25.7186 26.4723C25.9602 26.3918 26.1212 26.1723 26.1212 25.9161V16.6577L29.5757 15.5745C29.7733 15.516 29.9197 15.355 29.9709 15.1574C30.0221 14.9598 29.9636 14.7475 29.8172 14.6011L26.3554 11.1466ZM21.4298 5.87706C21.4298 5.73068 21.4225 5.57699 21.4151 5.43061L28.2949 7.55308L25.3746 10.4733L20.6028 8.88511C21.137 7.98489 21.4298 6.93829 21.4298 5.87706ZM11.1468 4.35474C11.7982 2.46647 13.5766 1.19299 15.5747 1.19299C17.7264 1.19299 19.6001 2.64944 20.1197 4.73532C20.2149 5.10858 20.2588 5.48916 20.2588 5.87706C20.2588 6.96757 19.9001 7.98489 19.2122 8.82656C18.3193 9.93171 16.9946 10.5611 15.5747 10.5611C14.0377 10.5611 12.6032 9.80729 11.725 8.54844C11.1761 7.76532 10.8906 6.84315 10.8906 5.87706C10.8906 5.35742 10.9785 4.8451 11.1468 4.35474ZM1.6835 7.55308L9.77816 5.02807C9.73425 5.30619 9.71229 5.59162 9.71229 5.87706C9.71229 6.82119 9.93918 7.73605 10.3637 8.55576L4.61105 10.4806L1.6835 7.55308ZM2.86184 14.9378L4.71351 11.8492L14.1182 14.9817L12.2666 18.0703C11.2566 17.7336 3.93039 15.2964 2.86184 14.9378ZM14.4037 28.5728L6.20656 25.4989V17.2872C12.6545 19.4243 12.3398 19.3584 12.5227 19.3584C12.7277 19.3584 12.918 19.2559 13.0277 19.073L14.411 16.7748V28.5728H14.4037ZM14.9892 14.0449L6.3017 11.1466L11.0297 9.57308C12.1348 10.9344 13.8035 11.7321 15.5747 11.7321C17.2141 11.7321 18.7511 11.0588 19.8562 9.87315L23.6767 11.1466L14.9892 14.0449ZM24.9428 25.4843L15.5747 28.6094V16.3284L17.6533 18.9193C17.8069 19.1096 18.0558 19.1827 18.2827 19.1096L24.9428 17.0164V25.4843ZM18.3119 17.88L15.9699 14.9524L25.3673 11.82L28.2949 14.7475L18.3119 17.88Z" fill="white"/>
<path d="M18.9196 3.71069C18.6927 3.48381 18.3194 3.48381 18.0925 3.71069L14.9893 6.80657L14.2355 6.05273C14.0086 5.82584 13.6353 5.82584 13.4084 6.05273C13.1816 6.27961 13.1816 6.65287 13.4084 6.87976L14.5795 8.05078C14.8064 8.27766 15.1796 8.27766 15.4065 8.05078L18.9196 4.53772C19.1464 4.31084 19.1464 3.93758 18.9196 3.71069Z" fill="white"/>
</g>
<defs>
<clipPath id="clip0">
<rect width="30" height="30.0732" fill="white"/>
</clipPath>
</defs>
</svg>
