<svg width="30" height="29" viewBox="0 0 30 29" fill="none" xmlns="http://www.w3.org/2000/svg">
<g clip-path="url(#clip0)">
<path d="M30.0868 13.6128C28.704 11.6729 26.4486 10.5116 24.0657 10.5116H20.9512L12.4667 0.241647C12.3392 0.0872613 12.1512 0 11.9498 0H8.64733C8.43253 0 8.23116 0.100686 8.11033 0.275209C7.9828 0.449731 7.94923 0.671241 8.00965 0.872613L8.795 3.36963H7.94252C7.57334 3.36963 7.27128 3.67169 7.27128 4.04087C7.27128 4.41005 7.57334 4.71211 7.94252 4.71211H9.21788L9.92268 6.94734H9.11048C8.7413 6.94734 8.43924 7.2494 8.43924 7.61859C8.43924 7.98777 8.7413 8.28983 9.11048 8.28983H10.3456L11.0504 10.5251H5.29783L2.98876 7.82667C2.86123 7.679 2.67328 7.59174 2.47862 7.59174H0.672982C0.464897 7.59174 0.270237 7.68571 0.142701 7.85352C0.0151653 8.02133 -0.0251091 8.22942 0.0218777 8.43079L1.48518 14.0021L0.0218777 19.5935C-0.0318216 19.7949 0.0151653 20.0097 0.142701 20.1708C0.270237 20.3319 0.464897 20.4326 0.672982 20.4326H2.47862C2.67328 20.4326 2.86123 20.3453 2.98876 20.1976L5.29112 17.4993H11.0437L10.3389 19.7345H9.10377C8.73459 19.7345 8.43253 20.0365 8.43253 20.4057C8.43253 20.7749 8.73459 21.077 9.10377 21.077H9.91597L9.21117 23.3122H7.93581C7.56663 23.3122 7.26457 23.6143 7.26457 23.9834C7.26457 24.3526 7.56663 24.6547 7.93581 24.6547H8.78829L8.00293 27.1517C7.93581 27.3531 7.97608 27.5746 8.10362 27.7491C8.23116 27.9236 8.43253 28.0243 8.64061 28.0243H11.9431C12.1445 28.0243 12.3324 27.9371 12.46 27.7827L20.9445 17.5127H24.0657C26.4486 17.5127 28.704 16.3514 30.0868 14.4115C30.2546 14.1632 30.2546 13.8477 30.0868 13.6128ZM9.56693 1.34248H11.6411L19.2194 10.5183H12.4466L9.56693 1.34248ZM2.16985 8.92751L4.07617 11.156L2.53232 12.6999L1.53888 8.92751H2.16985V8.92751ZM2.16985 19.0834H1.53888L2.53232 15.2976L4.07617 16.8549L2.16985 19.0834ZM11.6343 26.6684H9.56021L12.4466 17.4925H19.2127L11.6343 26.6684ZM24.0657 16.1501H11.9633H11.9565H5.25756L3.12301 13.9954L5.26427 11.8541H11.9565C11.9565 11.8541 11.9565 11.8541 11.9633 11.8541H24.0724C25.8579 11.8541 27.5562 12.6462 28.6973 14.0021C27.5495 15.358 25.8579 16.1501 24.0657 16.1501Z" fill="white"/>
</g>
<defs>
<clipPath id="clip0">
<rect width="30" height="28.125" fill="white"/>
</clipPath>
</defs>
</svg>
