<svg width="30" height="26" viewBox="0 0 30 26" fill="none" xmlns="http://www.w3.org/2000/svg">
<g clip-path="url(#clip0)">
<path d="M15 11.7188C14.6777 11.7188 14.4141 11.9824 14.4141 12.3047C14.4141 12.627 14.6777 12.8906 15 12.8906C15.3223 12.8906 15.5859 12.627 15.5859 12.3047C15.5859 11.9824 15.3223 11.7188 15 11.7188Z" fill="white"/>
<path d="M29.4141 2.34375H27.6563V0.585938C27.6563 0.263672 27.3926 0 27.0703 0H17.8271C16.7871 0 15.8057 0.344238 15 0.974121C14.1943 0.344238 13.2129 0 12.1729 0H2.92969C2.60742 0 2.34375 0.263672 2.34375 0.585938V2.34375H0.585938C0.263672 2.34375 0 2.60742 0 2.92969V22.8516C0 23.1738 0.263672 23.4375 0.585938 23.4375H11.2061C11.8726 23.4375 12.4805 23.811 12.7808 24.4116C13.1982 25.2539 14.0625 25.7812 15 25.7812C15.9302 25.7812 16.7944 25.2612 17.2192 24.4116C17.3657 24.1187 17.5928 23.877 17.8638 23.7012C18.1421 23.5327 18.4644 23.4375 18.7866 23.4375H29.4067C29.729 23.4375 29.9927 23.1738 29.9927 22.8516V2.92969C30 2.60742 29.7363 2.34375 29.4141 2.34375ZM3.51562 1.17188H12.1729C13.0078 1.17188 13.7915 1.47217 14.4141 2.01416V9.96094C14.4141 10.2832 14.6777 10.5469 15 10.5469C15.3223 10.5469 15.5859 10.2832 15.5859 9.96094V2.01416C16.2085 1.47217 16.9922 1.17188 17.8271 1.17188H26.4844V19.9219H17.8271C17.0288 19.9219 16.2598 20.127 15.5859 20.5078V14.6484C15.5859 14.3262 15.3223 14.0625 15 14.0625C14.6777 14.0625 14.4141 14.3262 14.4141 14.6484V20.5078C13.7402 20.127 12.9712 19.9219 12.1729 19.9219H3.51562V1.17188ZM28.8281 22.2656H18.7939C18.252 22.2656 17.7173 22.4194 17.2559 22.7051C16.7944 22.9907 16.4209 23.4009 16.1792 23.8843C15.9595 24.3237 15.5127 24.6094 15.0073 24.6094C14.5093 24.6094 14.0552 24.3237 13.8354 23.8843C13.3301 22.8882 12.3267 22.2656 11.2061 22.2656H1.17188V3.51562H2.34375V20.5078C2.34375 20.8301 2.60742 21.0938 2.92969 21.0938H12.1729C13.0884 21.0938 13.9453 21.4526 14.5898 22.0972C14.6997 22.207 14.8462 22.2656 15.0073 22.2656C15.1611 22.2656 15.3149 22.207 15.4248 22.0972C16.0693 21.4526 16.9263 21.0938 17.8418 21.0938H27.085C27.4072 21.0938 27.6709 20.8301 27.6709 20.5078V3.51562H28.8428V22.2656H28.8281Z" fill="white"/>
<path d="M12.6563 9.375H5.27344C4.95117 9.375 4.6875 9.63867 4.6875 9.96094C4.6875 10.2832 4.95117 10.5469 5.27344 10.5469H12.6563C12.9785 10.5469 13.2422 10.2832 13.2422 9.96094C13.2422 9.63867 12.9785 9.375 12.6563 9.375Z" fill="white"/>
<path d="M24.7266 9.375H17.3437C17.0215 9.375 16.7578 9.63867 16.7578 9.96094C16.7578 10.2832 17.0215 10.5469 17.3437 10.5469H24.7266C25.0488 10.5469 25.3125 10.2832 25.3125 9.96094C25.3125 9.63867 25.0488 9.375 24.7266 9.375Z" fill="white"/>
<path d="M12.6563 11.7188H5.27344C4.95117 11.7188 4.6875 11.9824 4.6875 12.3047C4.6875 12.627 4.95117 12.8906 5.27344 12.8906H12.6563C12.9785 12.8906 13.2422 12.627 13.2422 12.3047C13.2422 11.9824 12.9785 11.7188 12.6563 11.7188Z" fill="white"/>
<path d="M12.6563 14.0625H5.27344C4.95117 14.0625 4.6875 14.3262 4.6875 14.6484C4.6875 14.9707 4.95117 15.2344 5.27344 15.2344H12.6563C12.9785 15.2344 13.2422 14.9707 13.2422 14.6484C13.2422 14.3262 12.9785 14.0625 12.6563 14.0625Z" fill="white"/>
<path d="M24.7266 11.7188H17.3437C17.0215 11.7188 16.7578 11.9824 16.7578 12.3047C16.7578 12.627 17.0215 12.8906 17.3437 12.8906H24.7266C25.0488 12.8906 25.3125 12.627 25.3125 12.3047C25.3125 11.9824 25.0488 11.7188 24.7266 11.7188Z" fill="white"/>
<path d="M24.7266 14.0625H17.3437C17.0215 14.0625 16.7578 14.3262 16.7578 14.6484C16.7578 14.9707 17.0215 15.2344 17.3437 15.2344H24.7266C25.0488 15.2344 25.3125 14.9707 25.3125 14.6484C25.3125 14.3262 25.0488 14.0625 24.7266 14.0625Z" fill="white"/>
</g>
<defs>
<clipPath id="clip0">
<rect width="30" height="25.7812" fill="white"/>
</clipPath>
</defs>
</svg>
