<svg width="58" height="64" viewBox="0 0 58 64" fill="none" xmlns="http://www.w3.org/2000/svg">
<g clip-path="url(#clip0)">
<mask id="path-1-inside-1" fill="white">
<path d="M0 50.5344C0 55.149 1.06283 58.402 3.34031 60.5958C6.22513 63.3949 10.7801 64.0001 16.0942 64.0001C17.9162 64.0001 19.8901 63.9245 21.9398 63.8488C24.2173 63.7732 26.5707 63.6975 29 63.6975C30.8979 63.6975 32.7199 63.6975 34.5419 63.7732C43.0445 63.9245 50.4084 64.0758 54.5838 59.9906C56.9372 57.7211 58.0759 54.3169 58.0759 49.6266C58.0759 38.4304 51.0916 23.5273 39.7801 19.0639C39.6283 18.9883 39.4764 18.9883 39.4005 18.9883H18.6754C18.5236 18.9883 18.3717 18.9883 18.2958 19.0639C7.36387 23.376 0 38.8086 0 50.5344ZM18.9031 21.1821H39.0209C48.2068 24.9646 55.7225 37.6739 55.7225 49.6266C55.7225 53.7117 54.8115 56.5864 52.9136 58.402C49.4215 61.8062 42.5131 61.6549 34.5419 61.5036C32.7199 61.5036 30.8979 61.428 29 61.428C26.4948 61.428 24.1414 61.5036 21.8639 61.5793C14.5 61.8062 8.12304 62.0332 4.93455 59.0072C3.11257 57.2672 2.27749 54.5438 2.27749 50.5344C2.27749 37.0687 10.856 24.5864 18.9031 21.1821Z"/>
</mask>
<path d="M0 50.5344C0 55.149 1.06283 58.402 3.34031 60.5958C6.22513 63.3949 10.7801 64.0001 16.0942 64.0001C17.9162 64.0001 19.8901 63.9245 21.9398 63.8488C24.2173 63.7732 26.5707 63.6975 29 63.6975C30.8979 63.6975 32.7199 63.6975 34.5419 63.7732C43.0445 63.9245 50.4084 64.0758 54.5838 59.9906C56.9372 57.7211 58.0759 54.3169 58.0759 49.6266C58.0759 38.4304 51.0916 23.5273 39.7801 19.0639C39.6283 18.9883 39.4764 18.9883 39.4005 18.9883H18.6754C18.5236 18.9883 18.3717 18.9883 18.2958 19.0639C7.36387 23.376 0 38.8086 0 50.5344ZM18.9031 21.1821H39.0209C48.2068 24.9646 55.7225 37.6739 55.7225 49.6266C55.7225 53.7117 54.8115 56.5864 52.9136 58.402C49.4215 61.8062 42.5131 61.6549 34.5419 61.5036C32.7199 61.5036 30.8979 61.428 29 61.428C26.4948 61.428 24.1414 61.5036 21.8639 61.5793C14.5 61.8062 8.12304 62.0332 4.93455 59.0072C3.11257 57.2672 2.27749 54.5438 2.27749 50.5344C2.27749 37.0687 10.856 24.5864 18.9031 21.1821Z" fill="#FBBD65"/>
<path d="M3.34031 60.5958L5.4294 58.4427L5.42159 58.4352L3.34031 60.5958ZM21.9398 63.8488L21.8402 60.8504L21.8291 60.8508L21.9398 63.8488ZM34.5419 63.7732L34.4174 66.7706L34.453 66.772L34.4885 66.7727L34.5419 63.7732ZM54.5838 59.9906L52.5013 57.8312L52.4935 57.8387L52.4858 57.8463L54.5838 59.9906ZM39.7801 19.0639L38.4422 21.7491L38.5583 21.8069L38.679 21.8545L39.7801 19.0639ZM18.2958 19.0639L19.3966 21.8547L19.9739 21.627L20.4134 21.189L18.2958 19.0639ZM18.9031 21.1821V18.1821H18.2947L17.7343 18.4192L18.9031 21.1821ZM39.0209 21.1821L40.1632 18.4081L39.6144 18.1821H39.0209V21.1821ZM52.9136 58.402L50.8398 56.2342L50.8296 56.2439L50.8195 56.2538L52.9136 58.402ZM34.5419 61.5036L34.5988 58.5042L34.5704 58.5036H34.5419V61.5036ZM21.8639 61.5793L21.9563 64.5779L21.9635 64.5776L21.8639 61.5793ZM4.93455 59.0072L2.86263 61.1768L2.8694 61.1832L4.93455 59.0072ZM-3 50.5344C-3 55.5703 -1.83885 59.7723 1.25904 62.7565L5.42159 58.4352C3.9645 57.0316 3 54.7277 3 50.5344H-3ZM1.25124 62.7489C5.08719 66.4708 10.8091 67.0001 16.0942 67.0001V61.0001C10.7511 61.0001 7.36307 60.319 5.42939 58.4428L1.25124 62.7489ZM16.0942 67.0001C17.9833 67.0001 20.0182 66.9218 22.0504 66.8468L21.8291 60.8508C19.7619 60.9271 17.8492 61.0001 16.0942 61.0001V67.0001ZM22.0394 66.8471C24.3205 66.7714 26.6271 66.6975 29 66.6975V60.6975C26.5142 60.6975 24.1141 60.7749 21.8402 60.8505L22.0394 66.8471ZM29 66.6975C30.9089 66.6975 32.6682 66.6979 34.4174 66.7706L34.6663 60.7757C32.7716 60.6971 30.8869 60.6975 29 60.6975V66.6975ZM34.4885 66.7727C38.6711 66.8471 42.8847 66.9341 46.5796 66.4446C50.2924 65.9526 53.927 64.8302 56.6818 62.135L52.4858 57.8463C51.0651 59.2362 48.9302 60.0807 45.7915 60.4965C42.635 60.9148 38.9153 60.8505 34.5953 60.7736L34.4885 66.7727ZM56.6662 62.1501C59.8256 59.1034 61.0759 54.7652 61.0759 49.6266H55.0759C55.0759 53.8686 54.0487 56.3389 52.5013 57.8312L56.6662 62.1501ZM61.0759 49.6266C61.0759 43.4653 59.1726 36.443 55.7918 30.3626C52.4178 24.2946 47.3852 18.8397 40.8812 16.2733L38.679 21.8545C43.4865 23.7515 47.6018 27.9799 50.5479 33.2783C53.487 38.5643 55.0759 44.5916 55.0759 49.6266H61.0759ZM41.118 16.3788C40.2839 15.9632 39.5024 15.9883 39.4005 15.9883V21.9883C39.4505 21.9883 38.9727 22.0134 38.4422 21.7491L41.118 16.3788ZM39.4005 15.9883H18.6754V21.9883H39.4005V15.9883ZM18.6754 15.9883C18.6547 15.9883 18.3522 15.9824 18.0343 16.0277C17.7563 16.0673 16.9087 16.211 16.1782 16.9389L20.4134 21.189C20.0739 21.5273 19.7164 21.7136 19.4557 21.8152C19.2017 21.9142 18.9918 21.9519 18.8799 21.9678C18.6949 21.9941 18.5442 21.9883 18.6754 21.9883V15.9883ZM17.195 16.2732C10.8444 18.7782 5.81762 24.3624 2.41654 30.5792C-1.00077 36.8256 -3 44.1062 -3 50.5344H3C3 45.2368 4.68271 38.9382 7.68032 33.4589C10.6942 27.9499 14.8153 23.6618 19.3966 21.8547L17.195 16.2732ZM18.9031 24.1821H39.0209V18.1821H18.9031V24.1821ZM37.8787 23.9562C41.6911 25.526 45.424 29.0921 48.2309 33.862C51.0206 38.6027 52.7225 44.2484 52.7225 49.6266H58.7225C58.7225 43.052 56.6666 36.3667 53.402 30.819C50.1546 25.3005 45.5367 20.6208 40.1632 18.4081L37.8787 23.9562ZM52.7225 49.6266C52.7225 53.3499 51.8818 55.2373 50.8398 56.2342L54.9874 60.5698C57.7412 57.9354 58.7225 54.0734 58.7225 49.6266H52.7225ZM50.8195 56.2538C49.7919 57.2556 48.0084 57.9622 45.0596 58.3064C42.1442 58.6466 38.6498 58.5811 34.5988 58.5042L34.485 64.5031C38.4052 64.5775 42.3505 64.6633 45.7552 64.2659C49.1264 63.8725 52.5432 62.9527 55.0077 60.5502L50.8195 56.2538ZM34.5419 58.5036C33.6671 58.5036 32.7874 58.4855 31.861 58.4665C30.9445 58.4476 29.9845 58.428 29 58.428V64.428C29.9134 64.428 30.8133 64.4462 31.7378 64.4652C32.6524 64.484 33.5947 64.5036 34.5419 64.5036V58.5036ZM29 58.428C26.4388 58.428 24.0393 58.5054 21.7643 58.581L21.9635 64.5776C24.2434 64.5019 26.5508 64.428 29 64.428V58.428ZM21.7715 58.5807C18.0227 58.6963 14.8085 58.7973 12.1338 58.5282C9.41426 58.2545 7.85567 57.6435 6.99971 56.8312L2.8694 61.1832C5.20192 63.3969 8.42605 64.1854 11.5331 64.498C14.6849 64.8152 18.3411 64.6893 21.9563 64.5779L21.7715 58.5807ZM7.00647 56.8376C6.05906 55.9328 5.27749 54.2194 5.27749 50.5344H-0.722513C-0.722513 54.8683 0.166069 58.6016 2.86264 61.1768L7.00647 56.8376ZM5.27749 50.5344C5.27749 44.4226 7.23164 38.4646 10.1423 33.6334C13.0848 28.7493 16.8134 25.3236 20.072 23.9451L17.7343 18.4192C12.9458 20.4449 8.36149 24.9625 5.00297 30.5371C1.6126 36.1645 -0.722513 43.1804 -0.722513 50.5344H5.27749Z" fill="#FBBD65" mask="url(#path-1-inside-1)"/>
<mask id="path-3-inside-2" fill="white">
<path d="M20.042 16.9456H37.6546C37.9583 16.9456 38.2619 16.7943 38.4897 16.5674C41.7541 13.0875 43.7279 5.97636 43.7279 1.13475C43.7279 0.529551 43.1965 0 42.5892 0H15.1075C14.5002 0 13.9688 0.529551 13.9688 1.13475C13.9688 5.97636 15.9426 13.0875 19.207 16.5674C19.4347 16.7943 19.7384 16.9456 20.042 16.9456ZM41.4504 2.2695C41.2227 6.35461 39.6284 11.8014 37.1991 14.7518H20.5735C18.1441 11.8771 16.5499 6.43026 16.3222 2.2695H41.4504Z"/>
</mask>
<path d="M20.042 16.9456H37.6546C37.9583 16.9456 38.2619 16.7943 38.4897 16.5674C41.7541 13.0875 43.7279 5.97636 43.7279 1.13475C43.7279 0.529551 43.1965 0 42.5892 0H15.1075C14.5002 0 13.9688 0.529551 13.9688 1.13475C13.9688 5.97636 15.9426 13.0875 19.207 16.5674C19.4347 16.7943 19.7384 16.9456 20.042 16.9456ZM41.4504 2.2695C41.2227 6.35461 39.6284 11.8014 37.1991 14.7518H20.5735C18.1441 11.8771 16.5499 6.43026 16.3222 2.2695H41.4504Z" fill="#FBBD65"/>
<path d="M38.4897 16.5674L40.6073 18.6924L40.6431 18.6567L40.6777 18.6199L38.4897 16.5674ZM19.207 16.5674L17.019 18.6199L17.0536 18.6567L17.0894 18.6924L19.207 16.5674ZM41.4504 2.2695L44.4458 2.4365L44.6223 -0.730496L41.4504 -0.730496V2.2695ZM37.1991 14.7518V17.7518H38.615L39.5151 16.6587L37.1991 14.7518ZM20.5735 14.7518L18.2821 16.6882L19.1809 17.7518H20.5735V14.7518ZM16.3222 2.2695V-0.730496H13.1535L13.3266 2.43347L16.3222 2.2695ZM20.042 19.9456H37.6546V13.9456H20.042V19.9456ZM37.6546 19.9456C38.9302 19.9456 39.9574 19.34 40.6073 18.6924L36.3721 14.4423C36.5665 14.2487 36.9863 13.9456 37.6546 13.9456V19.9456ZM40.6777 18.6199C42.7388 16.4227 44.2219 13.3028 45.1903 10.2758C46.171 7.21041 46.7279 3.91253 46.7279 1.13475H40.7279C40.7279 3.19858 40.298 5.87706 39.4756 8.4476C38.641 11.0565 37.505 13.2322 36.3017 14.5149L40.6777 18.6199ZM46.7279 1.13475C46.7279 -1.13723 44.8434 -3 42.5892 -3V3C42.0136 3 41.5587 2.75449 41.2687 2.46547C40.9788 2.17657 40.7279 1.71847 40.7279 1.13475H46.7279ZM42.5892 -3H15.1075V3H42.5892V-3ZM15.1075 -3C12.8532 -3 10.9688 -1.13723 10.9688 1.13475H16.9688C16.9688 1.71847 16.7179 2.17657 16.428 2.46547C16.1379 2.75449 15.683 3 15.1075 3V-3ZM10.9688 1.13475C10.9688 3.91253 11.5257 7.21041 12.5064 10.2758C13.4747 13.3028 14.9578 16.4227 17.019 18.6199L21.395 14.5149C20.1917 13.2322 19.0557 11.0565 18.2211 8.4476C17.3987 5.87706 16.9688 3.19858 16.9688 1.13475H10.9688ZM17.0894 18.6924C17.7392 19.34 18.7664 19.9456 20.042 19.9456V13.9456C20.7104 13.9456 21.1302 14.2487 21.3246 14.4423L17.0894 18.6924ZM38.4551 2.10251C38.357 3.86132 37.9562 5.98788 37.2981 8.00624C36.6303 10.0547 35.7704 11.7673 34.8832 12.8448L39.5151 16.6587C41.0572 14.7859 42.2091 12.2999 43.0026 9.8661C43.8059 7.40219 44.3161 4.76279 44.4458 2.4365L38.4551 2.10251ZM37.1991 11.7518H20.5735V17.7518H37.1991V11.7518ZM22.8648 12.8154C21.9968 11.7882 21.1421 10.1107 20.4745 8.06297C19.8181 6.04976 19.4162 3.90517 19.3177 2.10554L13.3266 2.43347C13.4559 4.7946 13.965 7.45378 14.77 9.92284C15.5637 12.3574 16.7208 14.8406 18.2821 16.6882L22.8648 12.8154ZM16.3222 5.2695H41.4504V-0.730496H16.3222V5.2695Z" fill="#FBBD65" mask="url(#path-3-inside-2)"/>
<path d="M20.7253 50.5345C22.3955 51.5936 24.9007 52.0475 26.3431 52.1988V54.4683C26.3431 55.0735 26.8745 55.603 27.4819 55.603H30.8981C31.2018 55.603 31.5054 55.4517 31.6573 55.3004C31.885 55.0735 31.9609 54.7709 31.9609 54.4683V51.8962C34.618 51.2153 37.351 48.9458 37.6546 45.4659C38.0342 41.0782 35.1494 39.2626 34.5421 38.96C34.1625 38.8087 33.6311 38.5817 32.9478 38.2791C31.7332 37.8252 30.1389 37.1444 29.0002 36.3879C28.5447 36.0853 28.3929 35.707 28.4688 35.4044C28.5447 35.0262 29.0002 34.9505 29.3039 34.9505C31.3536 34.7992 34.4662 35.8583 34.4662 35.8583C34.7698 35.934 35.0735 35.934 35.3772 35.7827C35.6808 35.6314 35.8327 35.3288 35.9086 35.0262L36.7436 31.3193C36.8196 30.8654 36.6677 30.4115 36.2882 30.1089C35.2253 29.4281 33.2515 29.0498 31.9609 28.8985V26.9316C31.9609 26.3264 31.4295 25.7969 30.8222 25.7969H27.406C26.7986 25.7969 26.2672 26.3264 26.2672 26.9316V29.5037C22.2436 30.6385 20.3457 33.3619 20.8012 37.22C21.3327 41.4565 26.9505 43.2721 28.0892 43.5747C30.4426 44.2555 30.3667 44.6338 30.2149 45.1633C30.063 45.7685 28.1651 46.1468 26.2672 45.6929C24.673 45.3903 23.2306 44.6338 23.2306 44.6338C22.9269 44.4825 22.6232 44.4825 22.2436 44.5581C21.94 44.7094 21.7122 44.9364 21.5604 45.239L20.2698 49.2484C20.118 49.7023 20.2698 50.2319 20.7253 50.5345ZM23.3065 47.1302C23.9897 47.4328 24.8248 47.7354 25.7358 47.8867C28.0892 48.3406 31.8091 48.1893 32.3405 45.6172C33.0238 42.6669 30.1389 41.8347 28.6206 41.3808C26.7986 40.8513 23.2306 39.2626 23.0028 36.9174C22.6232 33.8914 24.1416 32.1515 27.6337 31.4706C28.1651 31.395 28.5447 30.9411 28.5447 30.4115V27.9907H29.7594V29.882C29.7594 30.4872 30.2149 30.9411 30.8222 31.0167C31.885 31.0924 33.4793 31.3193 34.4662 31.6976L34.0107 33.2862C32.796 32.9836 30.7463 32.5297 29.152 32.6054C27.7096 32.681 26.6468 33.5132 26.2672 34.7236C25.9635 36.0096 26.5709 37.3713 27.7855 38.1278C29.152 38.96 30.8981 39.7165 32.1128 40.1704C32.6442 40.3973 33.1756 40.6243 33.4792 40.6999C33.8588 40.9269 35.6808 42.0617 35.4531 45.012C35.2253 47.8111 32.796 49.4754 30.7463 49.6267C30.1389 49.7023 29.6834 50.1562 29.6834 50.7614V53.1822H28.4688V51.064C28.4688 50.4588 28.0133 50.0049 27.406 49.9293C26.5709 49.8536 24.2175 49.6267 22.5473 48.9458L23.3065 47.1302Z" fill="#FBBD65"/>
</g>
<defs>
<clipPath id="clip0">
<rect width="58" height="64" fill="white"/>
</clipPath>
</defs>
</svg>
