<svg width="38" height="39" viewBox="0 0 38 39" fill="none" xmlns="http://www.w3.org/2000/svg">
<circle cx="19" cy="19.25" r="17.5" stroke="#FBBD64" stroke-width="3"/>
<path d="M25.488 25.082V28.25H12.792V25.73L19.272 19.61C19.96 18.954 20.424 18.394 20.664 17.93C20.904 17.45 21.024 16.978 21.024 16.514C21.024 15.842 20.792 15.33 20.328 14.978C19.88 14.61 19.216 14.426 18.336 14.426C17.6 14.426 16.936 14.57 16.344 14.858C15.752 15.13 15.256 15.546 14.856 16.106L12.024 14.282C12.68 13.306 13.584 12.546 14.736 12.002C15.888 11.442 17.208 11.162 18.696 11.162C19.944 11.162 21.032 11.37 21.96 11.786C22.904 12.186 23.632 12.762 24.144 13.514C24.672 14.25 24.936 15.122 24.936 16.13C24.936 17.042 24.744 17.898 24.36 18.698C23.976 19.498 23.232 20.41 22.128 21.434L18.264 25.082H25.488Z" fill="#FBBD64"/>
</svg>
