<svg width="64" height="64" viewBox="0 0 64 64" fill="none" xmlns="http://www.w3.org/2000/svg">
<path d="M1.5 31.9934C1.5 15.1485 15.1485 1.5 31.9934 1.5C48.8383 1.5 62.4869 15.1485 62.4869 31.9934C62.4869 48.8383 48.8383 62.4869 31.9934 62.4869C15.1485 62.4869 1.5 48.8383 1.5 31.9934Z" stroke="#FBBD65" stroke-width="3"/>
<path d="M30.3126 42.818L30.3618 42.8291V43.2365V44.2365H31.3618H32.8477H33.8477V43.2365V42.8027C33.8656 42.7997 33.8846 42.7967 33.9096 42.7932L33.9996 42.7803L34.0857 42.7515C37.2567 41.6898 39.8196 39.3367 39.8046 36.304C39.8031 33.1747 37.0942 30.98 33.8477 29.9703V25.5501C33.9617 25.6122 34.0763 25.6802 34.1911 25.754C34.782 26.1538 35.1877 26.7638 35.3654 27.642L35.5883 28.743L36.6561 28.3942L38.6286 27.7499L39.5678 27.4431L39.2723 26.5002C38.8191 25.0543 38.1297 23.8541 37.1729 22.9519C36.2546 22.086 35.1336 21.5365 33.8477 21.285V20.8293V19.8293H32.8477H31.3618H30.3618V20.8293V21.2511L30.3491 21.2535C30.0902 21.302 29.8488 21.3666 29.6123 21.4455L29.5815 21.4557L29.5514 21.468C27.4719 22.3146 25.8598 23.9608 25.3777 26.0337L25.3698 26.0677L25.3643 26.1022C25.3074 26.4576 25.2597 26.844 25.2597 27.2859C25.2597 27.6358 25.2915 27.9627 25.3365 28.2626L25.3392 28.2809L25.3426 28.299C25.7945 30.7034 27.7734 32.5628 30.2361 33.3296L30.3618 33.3688V38.5815C29.4449 38.116 28.7506 37.2539 28.3201 35.8547L28.0417 34.9502L27.1233 35.1783L25.164 35.6648L24.1299 35.9216L24.4516 36.9373C25.4553 40.1061 27.3964 42.158 30.3126 42.818ZM33.8477 34.179C35.2443 34.6086 35.9899 35.5826 35.9899 36.4513C35.9899 37.0558 35.6453 37.6858 34.9329 38.1814L34.9038 38.2017L34.8762 38.2239C34.6301 38.4224 34.3 38.5912 33.8477 38.7087V34.179ZM29.0086 27.2333C29.0086 26.5797 29.4727 25.8597 30.3618 25.435V29.0211C29.4661 28.6054 29.0086 27.8893 29.0086 27.2333ZM13.939 32.0066C13.939 22.0264 22.0382 13.9395 32.0061 13.9395C41.973 13.9395 50.0609 22.0255 50.0733 32.0079C50.0727 41.974 41.9742 50.0607 32.0061 50.0607C22.025 50.0607 13.939 41.9737 13.939 32.0066Z" stroke="#FBBD65" stroke-width="2"/>
</svg>
