<svg width="64" height="64" viewBox="0 0 64 64" fill="none" xmlns="http://www.w3.org/2000/svg">
<path d="M30.5204 57.916H31.4863L31.886 57.0367C32.6241 55.4128 34.1938 54.2165 35.8846 54.2165C36.565 54.2165 37.1117 54.342 37.9171 54.6642L38.8354 55.0315L39.5348 54.3321L47.1186 46.7483L47.8831 45.9838L47.3996 45.0168C47.1345 44.4866 47.0031 43.9765 47.0031 43.283C47.0031 41.1519 48.9211 39.2339 51.0522 39.2339C53.216 39.2339 55.1013 40.9993 55.1013 43.283C55.1013 45.4468 53.336 47.3322 51.0522 47.3322C50.3587 47.3322 49.8486 47.2007 49.3184 46.9356L48.3514 46.4521L47.5869 47.2166L40.0031 54.8004L39.2386 55.5649L39.7221 56.5319C39.9872 57.0621 40.1187 57.5722 40.1187 58.2657C40.1187 60.4295 38.3533 62.3148 36.0695 62.3148C34.0912 62.3148 32.6535 61.2162 32.1284 59.641L31.7865 58.6154H30.7054H18.4973H17.5314L17.1317 59.4947C16.3936 61.1185 14.8239 62.3148 13.1331 62.3148C10.9693 62.3148 9.08398 60.5494 9.08398 58.2657C9.08398 56.1019 10.8494 54.2165 13.1331 54.2165C15.1114 54.2165 16.5492 55.3151 17.0743 56.8903L17.4161 57.916H18.4973H30.5204Z" stroke="#FBBD65" stroke-width="3"/>
<path d="M13.1723 49.3062L13.0661 49.4687L13.0515 49.5125C13.0264 49.5253 12.9984 49.5365 12.9715 49.5443C12.9699 49.5447 12.9683 49.5452 12.9668 49.5456C12.9605 49.5422 12.9529 49.5378 12.944 49.5321C12.8849 49.4945 12.8012 49.4204 12.7211 49.3023L3.31368 34.7299C2.14515 32.7171 1.5 30.58 1.5 28.3005C1.5 21.8866 6.4057 16.8525 12.763 16.8525C19.1485 16.8525 24.396 22.1 24.396 28.4855C24.396 30.7636 23.7516 32.8994 22.5844 34.9112L13.1723 49.3062ZM12.9908 49.5565C12.9908 49.5565 12.9902 49.5564 12.9892 49.556L12.9908 49.5565ZM20.1821 28.3005C20.1821 24.5452 17.1382 21.2514 13.1329 21.2514C9.12769 21.2514 6.08382 24.5452 6.08382 28.3005C6.08382 32.0885 9.34498 35.3496 13.1329 35.3496C16.8882 35.3496 20.1821 32.3058 20.1821 28.3005Z" stroke="#FBBD65" stroke-width="3"/>
<path d="M50.9062 34.1387L50.8 34.3011L50.7854 34.3449C50.7603 34.3578 50.7323 34.3689 50.7054 34.3767C50.7038 34.3772 50.7022 34.3776 50.7007 34.378C50.6944 34.3746 50.6868 34.3702 50.6779 34.3646C50.6183 34.3266 50.5337 34.2516 50.4531 34.1318C50.4521 34.1304 50.4511 34.1289 50.4502 34.1275L41.0454 19.7437C39.8783 17.7319 39.2339 15.596 39.2339 13.3179C39.2339 6.90515 44.5085 1.5 50.8668 1.5C57.2402 1.5 62.4569 6.90264 62.1318 13.2411L62.1298 13.2795V13.3179C62.1298 15.596 61.4855 17.7318 60.3183 19.7437L50.9062 34.1387ZM50.7247 34.3889C50.7247 34.389 50.7242 34.3888 50.7231 34.3885L50.7247 34.3889ZM43.8177 13.5029C43.8177 17.2582 46.8616 20.552 50.8668 20.552C54.7684 20.552 58.1306 17.3478 57.9158 13.4562C57.8891 9.68815 54.6392 6.45376 50.8668 6.45376C47.1116 6.45376 43.8177 9.49763 43.8177 13.5029Z" stroke="#FBBD65" stroke-width="3"/>
</svg>
