<svg width="38" height="39" viewBox="0 0 38 39" fill="none" xmlns="http://www.w3.org/2000/svg">
<circle cx="19" cy="20" r="17.5" stroke="#FBBD64" stroke-width="3"/>
<path d="M20.784 19.04C22.256 19.28 23.384 19.832 24.168 20.696C24.952 21.544 25.344 22.6 25.344 23.864C25.344 24.84 25.088 25.744 24.576 26.576C24.064 27.392 23.28 28.048 22.224 28.544C21.184 29.04 19.904 29.288 18.384 29.288C17.2 29.288 16.032 29.136 14.88 28.832C13.744 28.512 12.776 28.064 11.976 27.488L13.488 24.512C14.128 24.992 14.864 25.368 15.696 25.64C16.544 25.896 17.408 26.024 18.288 26.024C19.264 26.024 20.032 25.84 20.592 25.472C21.152 25.088 21.432 24.552 21.432 23.864C21.432 22.488 20.384 21.8 18.288 21.8H16.512V19.232L19.968 15.32H12.816V12.2H24.576V14.72L20.784 19.04Z" fill="#FBBD64"/>
</svg>
