<svg width="38" height="39" viewBox="0 0 38 39" fill="none" xmlns="http://www.w3.org/2000/svg">
<circle cx="19" cy="20" r="17.5" stroke="#FBBD64" stroke-width="3"/>
<path d="M23.432 20.168C24.264 20.584 24.896 21.128 25.328 21.8C25.776 22.472 26 23.248 26 24.128C26 25.168 25.704 26.08 25.112 26.864C24.52 27.632 23.688 28.232 22.616 28.664C21.544 29.08 20.304 29.288 18.896 29.288C17.488 29.288 16.248 29.08 15.176 28.664C14.12 28.232 13.296 27.632 12.704 26.864C12.128 26.08 11.84 25.168 11.84 24.128C11.84 23.248 12.056 22.472 12.488 21.8C12.936 21.128 13.568 20.584 14.384 20.168C13.76 19.784 13.28 19.304 12.944 18.728C12.608 18.136 12.44 17.464 12.44 16.712C12.44 15.736 12.712 14.888 13.256 14.168C13.8 13.448 14.56 12.896 15.536 12.512C16.512 12.112 17.632 11.912 18.896 11.912C20.176 11.912 21.304 12.112 22.28 12.512C23.272 12.896 24.04 13.448 24.584 14.168C25.128 14.888 25.4 15.736 25.4 16.712C25.4 17.464 25.232 18.136 24.896 18.728C24.56 19.304 24.072 19.784 23.432 20.168ZM18.896 14.768C18.112 14.768 17.48 14.96 17 15.344C16.536 15.712 16.304 16.224 16.304 16.88C16.304 17.52 16.536 18.024 17 18.392C17.464 18.76 18.096 18.944 18.896 18.944C19.696 18.944 20.336 18.76 20.816 18.392C21.296 18.024 21.536 17.52 21.536 16.88C21.536 16.224 21.296 15.712 20.816 15.344C20.336 14.96 19.696 14.768 18.896 14.768ZM18.896 26.432C19.872 26.432 20.64 26.216 21.2 25.784C21.776 25.336 22.064 24.744 22.064 24.008C22.064 23.272 21.776 22.688 21.2 22.256C20.64 21.824 19.872 21.608 18.896 21.608C17.936 21.608 17.176 21.824 16.616 22.256C16.056 22.688 15.776 23.272 15.776 24.008C15.776 24.76 16.056 25.352 16.616 25.784C17.176 26.216 17.936 26.432 18.896 26.432Z" fill="#FBBD64"/>
</svg>
