<svg width="38" height="39" viewBox="0 0 38 39" fill="none" xmlns="http://www.w3.org/2000/svg">
<circle cx="19" cy="20" r="17.5" stroke="#FBBD64" stroke-width="3"/>
<path d="M20.024 18.464C21.096 18.464 22.072 18.68 22.952 19.112C23.832 19.544 24.528 20.16 25.04 20.96C25.552 21.744 25.808 22.656 25.808 23.696C25.808 24.816 25.528 25.8 24.968 26.648C24.408 27.496 23.64 28.152 22.664 28.616C21.704 29.064 20.632 29.288 19.448 29.288C17.096 29.288 15.256 28.568 13.928 27.128C12.6 25.688 11.936 23.632 11.936 20.96C11.936 19.056 12.296 17.424 13.016 16.064C13.736 14.704 14.736 13.672 16.016 12.968C17.312 12.264 18.808 11.912 20.504 11.912C21.4 11.912 22.256 12.016 23.072 12.224C23.904 12.416 24.608 12.696 25.184 13.064L23.744 15.92C22.912 15.36 21.864 15.08 20.6 15.08C19.176 15.08 18.048 15.496 17.216 16.328C16.384 17.16 15.936 18.368 15.872 19.952C16.864 18.96 18.248 18.464 20.024 18.464ZM19.232 26.384C20.064 26.384 20.736 26.16 21.248 25.712C21.776 25.264 22.04 24.656 22.04 23.888C22.04 23.12 21.776 22.512 21.248 22.064C20.736 21.6 20.048 21.368 19.184 21.368C18.336 21.368 17.64 21.608 17.096 22.088C16.552 22.552 16.28 23.152 16.28 23.888C16.28 24.624 16.544 25.224 17.072 25.688C17.6 26.152 18.32 26.384 19.232 26.384Z" fill="#FBBD64"/>
</svg>
