<svg width="30" height="30" viewBox="0 0 30 30" fill="none" xmlns="http://www.w3.org/2000/svg">
<path d="M15.1507 14.4422C13.7004 13.6809 12.7498 13.1251 12.7498 12.4001C12.7498 11.3368 13.6273 10.4668 14.6998 10.4668C15.7723 10.4668 16.6498 11.3368 16.6498 12.4001C16.6498 12.9318 17.0886 13.3668 17.6248 13.3668C18.1611 13.3668 18.5998 12.9318 18.5998 12.4001C18.5998 10.5997 17.3567 9.08926 15.6748 8.65426V7.56676C15.6748 7.0351 15.2361 6.6001 14.6998 6.6001C14.1636 6.6001 13.7248 7.0351 13.7248 7.56676V8.65426C12.0429 9.08926 10.7998 10.5997 10.7998 12.4001C10.7998 14.3455 12.6279 15.3122 14.2489 16.158C15.6992 16.9193 16.6498 17.4751 16.6498 18.2001C16.6498 19.2634 15.7723 20.1334 14.6998 20.1334C13.6273 20.1334 12.7498 19.2634 12.7498 18.2001C12.7498 17.6684 12.3111 17.2334 11.7748 17.2334C11.2386 17.2334 10.7998 17.6684 10.7998 18.2001C10.7998 20.0005 12.0429 21.5109 13.7248 21.9459V23.0334C13.7248 23.5651 14.1636 24.0001 14.6998 24.0001C15.2361 24.0001 15.6748 23.5651 15.6748 23.0334V21.9459C17.3567 21.5109 18.5998 20.0005 18.5998 18.2001C18.5998 16.2547 16.7717 15.288 15.1507 14.4422Z" fill="white"/>
<circle cx="15" cy="15" r="14" stroke="white" stroke-width="2"/>
<circle cx="14.7" cy="15.3001" r="10.7" stroke="white" stroke-width="2"/>
</svg>
