<svg width="30" height="30" viewBox="0 0 30 30" fill="none" xmlns="http://www.w3.org/2000/svg">
<path d="M28.2422 0H17.4023C17.0801 0 16.8164 0.263672 16.8164 0.585938C16.8164 0.908203 17.0801 1.17188 17.4023 1.17188H28.2422C28.5645 1.17188 28.8281 1.43555 28.8281 1.75781V18.0469H5.27344C4.95117 18.0469 4.6875 18.3105 4.6875 18.6328C4.6875 18.9551 4.95117 19.2188 5.27344 19.2188H28.8281V20.9766C28.8281 21.2988 28.5645 21.5625 28.2422 21.5625H1.75781C1.43555 21.5625 1.17188 21.2988 1.17188 20.9766V1.75781C1.17188 1.43555 1.43555 1.17188 1.75781 1.17188H12.7148C13.0371 1.17188 13.3008 0.908203 13.3008 0.585938C13.3008 0.263672 13.0371 0 12.7148 0H1.75781C0.791016 0 0 0.791016 0 1.75781V20.9766C0 21.9434 0.791016 22.7344 1.75781 22.7344H11.8359V25.6641H11.6016C9.5332 25.6641 7.85156 27.3457 7.85156 29.4141C7.85156 29.7363 8.11523 30 8.4375 30H21.5625C21.8848 30 22.1484 29.7363 22.1484 29.4141C22.1484 27.3457 20.4668 25.6641 18.3984 25.6641H18.1641V22.7344H28.2422C29.209 22.7344 30 21.9434 30 20.9766V1.75781C30 0.791016 29.209 0 28.2422 0ZM20.9121 28.8281H9.08789C9.35156 27.6855 10.377 26.8359 11.6016 26.8359H18.3984C19.6172 26.8359 20.6426 27.6855 20.9121 28.8281ZM16.9922 25.6641H13.0078V22.7344H16.9922V25.6641Z" fill="white"/>
<path d="M15.0586 1.17188C15.2109 1.17188 15.3633 1.10742 15.4746 1.00195C15.5859 0.890625 15.6445 0.744141 15.6445 0.585938C15.6445 0.433594 15.5801 0.28125 15.4746 0.169922C15.3691 0.0644531 15.2168 0 15.0586 0C14.9063 0 14.7539 0.0644531 14.6426 0.169922C14.5312 0.28125 14.4727 0.427734 14.4727 0.585938C14.4727 0.738281 14.5371 0.890625 14.6426 1.00195C14.7539 1.10742 14.9063 1.17188 15.0586 1.17188Z" fill="white"/>
<path d="M11.0684 3.60937C11.0039 3.3457 10.7695 3.16406 10.5 3.16406H8.66602C8.34375 3.16406 8.08008 3.42773 8.08008 3.75C8.08008 4.07227 8.34375 4.33594 8.66602 4.33594H10.043L11.0039 8.20312H8.11523C7.79297 8.20312 7.5293 8.4668 7.5293 8.78906C7.5293 9.11133 7.79297 9.375 8.11523 9.375H11.2969L11.707 11.0156H6.55664C6.23437 11.0156 5.9707 11.2793 5.9707 11.6016C5.9707 11.9238 6.23437 12.1875 6.55664 12.1875H12L12.2402 13.1484C12.3047 13.4121 12.5391 13.5938 12.8086 13.5938H13.3828C13.2949 13.8105 13.248 14.0508 13.248 14.2969C13.248 15.3281 14.0918 16.1719 15.123 16.1719C16.1543 16.1719 16.998 15.3281 16.998 14.2969C16.998 14.0508 16.9512 13.8105 16.8633 13.5938H19.2187C19.1309 13.8105 19.084 14.0508 19.084 14.2969C19.084 15.3281 19.9277 16.1719 20.959 16.1719C21.9902 16.1719 22.834 15.3281 22.834 14.2969C22.834 14.0508 22.7871 13.8105 22.6992 13.5938H23.4434C23.7656 13.5938 24.0293 13.3301 24.0293 13.0078C24.0293 12.6855 23.7656 12.4219 23.4434 12.4219H22.9043V5.625C22.9043 4.98047 22.377 4.45312 21.7324 4.45312H14.9355C14.291 4.45312 13.7637 4.98047 13.7637 5.625V12.4219H13.2773L11.0684 3.60937ZM15.8203 14.2969C15.8203 14.6836 15.5039 15 15.1172 15C14.7305 15 14.4141 14.6836 14.4141 14.2969C14.4141 13.9102 14.7305 13.5938 15.1172 13.5938C15.5039 13.5938 15.8203 13.9102 15.8203 14.2969ZM20.9473 15C20.5605 15 20.2441 14.6836 20.2441 14.2969C20.2441 13.9102 20.5605 13.5938 20.9473 13.5938C21.334 13.5938 21.6504 13.9102 21.6504 14.2969C21.6504 14.6836 21.334 15 20.9473 15ZM19.0547 5.625V7.10742H17.5723V5.625H19.0547ZM14.9238 5.625H16.4004V7.69336C16.4004 8.01563 16.6641 8.2793 16.9863 8.2793H19.6406C19.9629 8.2793 20.2266 8.01563 20.2266 7.69336V5.625H21.7207V12.4219H14.9238V5.625Z" fill="white"/>
</svg>
