<svg width="30" height="34" viewBox="0 0 30 34" fill="none" xmlns="http://www.w3.org/2000/svg">
<path d="M25.4349 22.9565C25.0762 22.9565 24.7827 23.25 24.7827 23.6087C24.7827 23.9674 25.0762 24.2609 25.4349 24.2609C25.7936 24.2609 26.0871 23.9674 26.0871 23.6087C26.0871 23.25 25.7936 22.9565 25.4349 22.9565Z" fill="white"/>
<path d="M14.9998 22.9565C14.6411 22.9565 14.3477 23.25 14.3477 23.6087C14.3477 23.9674 14.6411 24.2609 14.9998 24.2609C15.3585 24.2609 15.652 23.9674 15.652 23.6087C15.652 23.25 15.3585 22.9565 14.9998 22.9565Z" fill="white"/>
<path d="M3.26106 6.91309C2.90236 6.91309 2.60889 7.20656 2.60889 7.56526C2.60889 7.92395 2.90236 8.21743 3.26106 8.21743C3.61976 8.21743 3.91323 7.92395 3.91323 7.56526C3.91323 7.20656 3.61976 6.91309 3.26106 6.91309Z" fill="white"/>
<path d="M27.962 19.6549C26.894 17.8614 25.5734 16.4429 24.1386 15.538C24.163 15.5136 24.1875 15.4973 24.2038 15.4728C24.5707 15.106 24.7745 14.6087 24.7745 14.0869C24.7745 13.8342 24.7255 13.5897 24.6359 13.3696C25.4674 13.1413 26.0788 12.3831 26.0788 11.4783C26.0788 10.9891 25.8995 10.5326 25.5815 10.1739C25.8913 9.82336 26.0788 9.36684 26.0788 8.86956C26.0788 8.38043 25.8995 7.92391 25.5815 7.56521C25.9076 7.20652 26.0788 6.74999 26.0788 6.26086C26.0788 5.18478 25.1984 4.30434 24.1223 4.30434H22.6549L23.4538 0.798912C23.4946 0.60326 23.4538 0.399456 23.3234 0.244565C23.2011 0.0896738 23.0136 0 22.8098 0H17.5924C17.3967 0 17.2092 0.0896738 17.0788 0.244565C16.9565 0.399456 16.9076 0.60326 16.9565 0.798912L17.1929 1.82609L15.6766 2.58424C14.9755 2.93478 14.3315 3.39945 13.7772 3.9538C12.8641 4.86684 11.6984 5.42119 10.4348 5.56793V4.95652C10.4348 4.59782 10.1413 4.30434 9.78261 4.30434H0.652174C0.293478 4.30434 0 4.59782 0 4.95652V15.3913C0 15.75 0.293478 16.0435 0.652174 16.0435H9.78261C10.1413 16.0435 10.4348 15.75 10.4348 15.3913V14.7391H10.6712C11.7391 14.7391 12.7989 14.9103 13.8098 15.2446C14.4946 15.4728 15.2038 15.6522 15.913 15.7826C14.625 16.6875 13.4429 18.0081 12.4728 19.6467C11.1929 21.7907 10.4348 24.2445 10.4348 26.2092C10.4348 28.4022 11.3804 30.2364 13.1576 31.5081C14.8777 32.731 17.3152 33.3831 20.2174 33.3831C23.1196 33.3831 25.5571 32.731 27.2772 31.5081C29.0625 30.2364 30 28.4022 30 26.2092C30 24.2609 29.2418 21.807 27.962 19.6549ZM9.13044 6.91304H5.86957C5.51087 6.91304 5.21739 7.20652 5.21739 7.56521C5.21739 7.92391 5.51087 8.21738 5.86957 8.21738H9.13044V14.7391H1.30435V5.60869H9.13044V6.91304ZM22.0109 1.30435L21.3261 4.30434H19.1087L18.4239 1.30435H22.0109V1.30435ZM14.2255 14.0136C13.0761 13.6304 11.8859 13.4348 10.6712 13.4348H10.4348V6.88043C12.0408 6.73369 13.5408 6.0326 14.6984 4.875C15.1549 4.41847 15.6848 4.03532 16.2636 3.75L17.5109 3.13043L17.7799 4.30434H17.6168C17.2582 4.30434 16.9647 4.59782 16.9647 4.95652C16.9647 5.31521 17.2582 5.60869 17.6168 5.60869H24.1386C24.4973 5.60869 24.7908 5.90217 24.7908 6.26086C24.7908 6.43206 24.7255 6.5951 24.6033 6.72554C24.481 6.84782 24.3179 6.91304 24.1386 6.91304H21.5299C21.1712 6.91304 20.8777 7.20652 20.8777 7.56521C20.8777 7.92391 21.1712 8.21738 21.5299 8.21738H24.1386C24.4973 8.21738 24.7908 8.51086 24.7908 8.86956C24.7908 9.22825 24.4973 9.52173 24.1386 9.52173H21.5299C21.1712 9.52173 20.8777 9.81521 20.8777 10.1739C20.8777 10.5326 21.1712 10.8261 21.5299 10.8261H24.1386C24.4973 10.8261 24.7908 11.1196 24.7908 11.4783C24.7908 11.8369 24.4973 12.1304 24.1386 12.1304H21.5299C21.1712 12.1304 20.8777 12.4239 20.8777 12.7826C20.8777 13.1413 21.1712 13.4348 21.5299 13.4348H22.8342C23.1929 13.4348 23.4864 13.7283 23.4864 14.0869C23.4864 14.4456 23.1929 14.7391 22.8342 14.7391H18.7174C18.5136 14.7391 18.3016 14.731 18.0815 14.7228C16.769 14.6657 15.4728 14.4293 14.2255 14.0136ZM26.519 30.4565C25.0272 31.5244 22.8505 32.0869 20.2174 32.0869C17.5924 32.0869 15.4158 31.5244 13.9158 30.4565C12.4891 29.4375 11.7391 27.9701 11.7391 26.2174C11.7391 24.481 12.4321 22.2717 13.5978 20.3234C14.8696 18.1875 16.5 16.6712 18.1957 16.0353C18.3668 16.0435 18.5462 16.0435 18.7174 16.0435H22.2717C23.9674 16.6875 25.5815 18.1956 26.8451 20.3234C28.0109 22.2799 28.7038 24.481 28.7038 26.2174C28.6957 27.9701 27.9457 29.4375 26.519 30.4565Z" fill="white"/>
<path d="M20.5514 23.0788C19.5813 22.5653 18.9455 22.1903 18.9455 21.7011C18.9455 20.9837 19.5324 20.3968 20.2498 20.3968C20.9672 20.3968 21.5542 20.9837 21.5542 21.7011C21.5542 22.0598 21.8476 22.3533 22.2063 22.3533C22.565 22.3533 22.8585 22.0598 22.8585 21.7011C22.8585 20.4865 22.027 19.4674 20.902 19.174V18.4403C20.902 18.0816 20.6085 17.7881 20.2498 17.7881C19.8911 17.7881 19.5976 18.0816 19.5976 18.4403V19.174C18.4726 19.4674 17.6411 20.4865 17.6411 21.7011C17.6411 23.0136 18.8639 23.6658 19.9482 24.2365C20.9183 24.75 21.5542 25.125 21.5542 25.6142C21.5542 26.3316 20.9672 26.9185 20.2498 26.9185C19.5324 26.9185 18.9455 26.3316 18.9455 25.6142C18.9455 25.2555 18.652 24.962 18.2933 24.962C17.9346 24.962 17.6411 25.2555 17.6411 25.6142C17.6411 26.8288 18.4726 27.8479 19.5976 28.1413V28.875C19.5976 29.2337 19.8911 29.5272 20.2498 29.5272C20.6085 29.5272 20.902 29.2337 20.902 28.875V28.1413C22.027 27.8479 22.8585 26.8288 22.8585 25.6142C22.8585 24.3017 21.6357 23.6495 20.5514 23.0788Z" fill="white"/>
</svg>
