<svg width="30" height="23" viewBox="0 0 30 23" fill="none" xmlns="http://www.w3.org/2000/svg">
<g clip-path="url(#clip0)">
<path d="M29.8301 12.3574L24.9258 7.44141C24.8145 7.33008 24.668 7.27148 24.5098 7.27148H19.6875V1.99219C19.6875 0.896484 18.791 0 17.6953 0H1.99219C0.896484 0 0 0.896484 0 1.99219V17.6953C0 18.791 0.896484 19.6875 1.99219 19.6875H2.5957C2.58398 19.8047 2.57227 19.9219 2.57227 20.0391C2.57227 20.6953 2.78906 21.3047 3.1582 21.7969H0.585937C0.263672 21.7969 0 22.0605 0 22.3828C0 22.7051 0.263672 22.9688 0.585937 22.9688H10.1895C11.8066 22.9688 13.1191 21.6563 13.1191 20.0391C13.1191 19.9219 13.1133 19.8047 13.0957 19.6875H22.0488C22.0371 19.8047 22.0254 19.9219 22.0254 20.0391C22.0254 20.6953 22.2422 21.3047 22.6113 21.7969H18.9199C18.5977 21.7969 18.334 22.0605 18.334 22.3828C18.334 22.7051 18.5977 22.9688 18.9199 22.9688H24.9551C26.5723 22.9688 27.8848 21.6563 27.8848 20.0391C27.8848 19.9219 27.8789 19.8047 27.8613 19.6875H29.4141C29.7363 19.6875 30 19.4238 30 19.1016V12.7734C30 12.6211 29.9355 12.4688 29.8301 12.3574ZM28.8281 14.2969H24.8496L27.4805 11.666L28.8281 13.0137V14.2969ZM22.8516 13.7109V12.5098L25.5879 9.77344L26.6543 10.8398L23.2324 14.2617C23.0098 14.1738 22.8516 13.9629 22.8516 13.7109ZM24.7617 8.94141L22.8516 10.8516V8.44336H24.2695L24.7617 8.94141ZM12.1816 1.17187V5.24414L11.7188 4.78125C11.4902 4.55273 11.1211 4.55273 10.8926 4.78125L9.84375 5.83008L8.79492 4.78125C8.67773 4.66406 8.53125 4.61133 8.37891 4.61133C8.22656 4.61133 8.08008 4.66992 7.96289 4.78125L7.5 5.24414V1.17187H12.1816ZM3.74414 20.0391C3.74414 19.0723 4.53516 18.2813 5.50195 18.2813C6.46875 18.2813 7.25977 19.0723 7.25977 20.0391C7.25977 21.0059 6.46875 21.7969 5.50195 21.7969C4.53516 21.7969 3.74414 21.0059 3.74414 20.0391ZM10.1895 21.7969C9.22266 21.7969 8.43164 21.0059 8.43164 20.0391C8.43164 19.0723 9.22266 18.2813 10.1895 18.2813C11.1562 18.2813 11.9473 19.0723 11.9473 20.0391C11.9473 21.0059 11.1621 21.7969 10.1895 21.7969ZM16.6992 18.5156H12.6914C12.1758 17.6719 11.25 17.1094 10.1895 17.1094C9.23437 17.1094 8.37891 17.5723 7.8457 18.2813C7.3125 17.5664 6.45703 17.1094 5.50195 17.1094C4.44141 17.1094 3.51563 17.6719 3 18.5156H1.99219C1.54102 18.5156 1.17187 18.1465 1.17187 17.6953V1.99219C1.17187 1.54102 1.54102 1.17187 1.99219 1.17187H6.33398V6.66211C6.33398 6.89648 6.47461 7.11328 6.69727 7.20117C6.91406 7.28906 7.16602 7.24219 7.33594 7.07227L8.38477 6.02344L9.43359 7.07227C9.66211 7.30078 10.0313 7.30078 10.2598 7.07227L11.3086 6.02344L12.3574 7.07227C12.4688 7.18359 12.6211 7.24219 12.7734 7.24219C12.8496 7.24219 12.9258 7.22461 12.9961 7.19531C13.2129 7.10742 13.3594 6.89062 13.3594 6.65625V1.17187H17.6953C18.1465 1.17187 18.5156 1.54102 18.5156 1.99219V17.6953C18.5156 18.1465 18.1465 18.5156 17.6953 18.5156H16.6992ZM24.9609 21.7969C23.9941 21.7969 23.2031 21.0059 23.2031 20.0391C23.2031 19.916 23.2148 19.793 23.2383 19.6758C23.5078 19.623 23.707 19.3828 23.707 19.1016C23.707 19.0137 23.6895 18.9316 23.6543 18.8613C23.9766 18.5039 24.4395 18.2813 24.9551 18.2813C25.4648 18.2813 25.9219 18.498 26.2441 18.8438C26.209 18.9199 26.1855 19.0078 26.1855 19.1016C26.1855 19.3945 26.3965 19.6348 26.6777 19.6816C26.7012 19.7988 26.7129 19.916 26.7129 20.0391C26.7187 21.0059 25.9277 21.7969 24.9609 21.7969ZM27.4629 18.5156C26.9473 17.6719 26.0215 17.1094 24.9609 17.1094C23.9004 17.1094 22.9746 17.6719 22.459 18.5156H19.5117C19.623 18.2637 19.6875 17.9883 19.6875 17.6953V8.44336H21.6797V13.7109C21.6797 14.6777 22.4707 15.4688 23.4375 15.4688H28.8281V18.5156H27.4629Z" fill="white"/>
</g>
<defs>
<clipPath id="clip0">
<rect width="30" height="22.9688" fill="white"/>
</clipPath>
</defs>
</svg>
