<svg width="30" height="30" viewBox="0 0 30 30" fill="none" xmlns="http://www.w3.org/2000/svg">
<g clip-path="url(#clip0)">
<path d="M21.1523 22.9688V25.3125C21.1523 27.8965 19.0488 30 16.4648 30H4.6875C2.10352 30 0 27.8965 0 25.3125V4.6875C0 2.10352 2.10352 0 4.6875 0H16.4648C19.0488 0 21.1523 2.10352 21.1523 4.6875V7.03125C21.1523 7.67578 20.625 8.20312 19.9805 8.20312C19.3359 8.20312 18.8086 7.67578 18.8086 7.03125V4.6875C18.8086 3.39258 17.7598 2.34375 16.4648 2.34375H4.6875C3.39258 2.34375 2.34375 3.39258 2.34375 4.6875V25.3125C2.34375 26.6074 3.39258 27.6562 4.6875 27.6562H16.4648C17.7598 27.6562 18.8086 26.6074 18.8086 25.3125V22.9688C18.8086 22.3242 19.3359 21.7969 19.9805 21.7969C20.625 21.7969 21.1523 22.3242 21.1523 22.9688ZM29.1445 12.9844L26.5195 10.3594C26.0625 9.90234 25.3184 9.90234 24.8613 10.3594C24.4043 10.8164 24.4043 11.5605 24.8613 12.0176L26.7305 13.8867H12.6562C12.0117 13.8867 11.4844 14.4141 11.4844 15.0586C11.4844 15.7031 12.0117 16.2305 12.6562 16.2305H26.7246L24.8555 18.0996C24.3984 18.5566 24.3984 19.3008 24.8555 19.7578C25.084 19.9863 25.3828 20.1035 25.6816 20.1035C25.9805 20.1035 26.2793 19.9863 26.5078 19.7578L29.1328 17.1328C30.2871 15.9902 30.2871 14.127 29.1445 12.9844Z" fill="white"/>
</g>
<defs>
<clipPath id="clip0">
<rect width="30" height="30" fill="white"/>
</clipPath>
</defs>
</svg>
