<svg width="30" height="30" viewBox="0 0 30 30" fill="none" xmlns="http://www.w3.org/2000/svg">
<path d="M29.4141 28.8281H27.2461V8.66602C28.8633 7.98047 30 6.375 30 4.51172C30 2.02148 27.9785 0 25.4883 0C22.998 0 20.9766 2.02148 20.9766 4.51172C20.9766 6.375 22.1133 7.98047 23.7305 8.66602V25.084C23.2969 24.7852 22.7695 24.6094 22.207 24.6094H21.0996C21.1875 24.3926 21.2402 24.1523 21.2402 23.9004V10.084C21.2402 9.04688 20.3965 8.20312 19.3594 8.20312H5.54297C4.50586 8.20312 3.66211 9.04688 3.66211 10.084V23.9004C3.66211 24.1523 3.70898 24.3926 3.80273 24.6094H2.69531C1.20703 24.6094 0 25.8164 0 27.3047C0 28.793 1.20703 30 2.69531 30H29.4141C29.7363 30 30 29.7363 30 29.4141C30 29.0918 29.7363 28.8281 29.4141 28.8281ZM22.1484 4.51172C22.1484 2.67188 23.6484 1.17188 25.4883 1.17188C27.3281 1.17188 28.8281 2.67188 28.8281 4.51172C28.8281 5.2207 28.6055 5.87695 28.2246 6.42187L27.6562 5.85352C27.9023 5.45508 28.0371 4.99219 28.0371 4.51172C28.0371 3.10547 26.8945 1.96289 25.4883 1.96289C24.082 1.96289 22.9395 3.10547 22.9395 4.51172C22.9395 4.83398 23.2031 5.09766 23.5254 5.09766C23.8477 5.09766 24.1113 4.83398 24.1113 4.51172C24.1113 3.75 24.7266 3.13477 25.4883 3.13477C26.25 3.13477 26.8652 3.75 26.8652 4.51172C26.8652 4.67578 26.8359 4.82813 26.7832 4.98047L25.9043 4.10156C25.6758 3.87305 25.3066 3.87305 25.0781 4.10156C24.8496 4.33008 24.8496 4.69922 25.0781 4.92773L27.4043 7.25391C26.8652 7.63477 26.2031 7.85742 25.4941 7.85742C23.6484 7.85156 22.1484 6.35156 22.1484 4.51172ZM14.4551 9.375V12.7559L14.1621 12.4629C13.9336 12.2344 13.5645 12.2344 13.3359 12.4629L12.457 13.3418L11.5781 12.4629C11.4609 12.3457 11.3145 12.293 11.1621 12.293C11.0098 12.293 10.8633 12.3516 10.7461 12.4629L10.4531 12.7559V9.375H14.4551ZM4.83398 23.9004V10.084C4.83398 9.69141 5.15039 9.375 5.54297 9.375H9.27539V14.1738C9.27539 14.4082 9.41602 14.625 9.63867 14.7129C9.85547 14.8066 10.1074 14.7539 10.2773 14.584L11.1562 13.7051L12.0352 14.584C12.2637 14.8125 12.6328 14.8125 12.8613 14.584L13.7402 13.7051L14.6191 14.584C14.7305 14.6953 14.8828 14.7539 15.0352 14.7539C15.1113 14.7539 15.1875 14.7363 15.2578 14.707C15.4746 14.6191 15.6211 14.4023 15.6211 14.168V9.375H19.3535C19.7461 9.375 20.0625 9.69141 20.0625 10.084V23.9004C20.0625 24.293 19.7461 24.6094 19.3535 24.6094H5.54297C5.15039 24.6094 4.83398 24.293 4.83398 23.9004ZM2.69531 28.8281C1.85742 28.8281 1.17188 28.1426 1.17188 27.3047C1.17188 26.4668 1.85742 25.7812 2.69531 25.7812H22.207C23.0449 25.7812 23.7305 26.4668 23.7305 27.3047C23.7305 28.1426 23.0449 28.8281 22.207 28.8281H2.69531ZM24.9023 28.8281V9.02344H26.0742V28.8281H24.9023Z" fill="white"/>
</svg>
